<mxfile host="Electron" agent="Mozilla/5.0 (Windows NT 10.0; Win64; x64) AppleWebKit/537.36 (KHTML, like Gecko) draw.io/24.7.17 Chrome/128.0.6613.36 Electron/32.0.1 Safari/537.36" version="24.7.17">
  <diagram name="Page-1" id="TUQ83A0PQoJl3ez2HU18">
    <mxGraphModel dx="1615" dy="968" grid="1" gridSize="10" guides="1" tooltips="1" connect="1" arrows="1" fold="1" page="1" pageScale="1" pageWidth="2069" pageHeight="1527" math="0" shadow="0">
      <root>
        <mxCell id="0" />
        <mxCell id="1" parent="0" />
        <mxCell id="EV2uNFOoqOG4Egj3vw7C-1" value="" style="rounded=0;whiteSpace=wrap;html=1;" vertex="1" parent="1">
          <mxGeometry x="610" y="110" width="590" height="870" as="geometry" />
        </mxCell>
        <mxCell id="EV2uNFOoqOG4Egj3vw7C-5" value="Tenant(User)" style="shape=umlActor;verticalLabelPosition=bottom;verticalAlign=top;html=1;outlineConnect=0;" vertex="1" parent="1">
          <mxGeometry x="420" y="200" width="30" height="60" as="geometry" />
        </mxCell>
        <mxCell id="EV2uNFOoqOG4Egj3vw7C-8" value="" style="endArrow=none;html=1;rounded=0;" edge="1" parent="1" target="EV2uNFOoqOG4Egj3vw7C-7">
          <mxGeometry width="50" height="50" relative="1" as="geometry">
            <mxPoint x="460" y="220" as="sourcePoint" />
            <mxPoint x="590" y="150" as="targetPoint" />
          </mxGeometry>
        </mxCell>
        <mxCell id="EV2uNFOoqOG4Egj3vw7C-33" value="" style="endArrow=none;html=1;rounded=0;entryX=0;entryY=0.5;entryDx=0;entryDy=0;" edge="1" parent="1" target="EV2uNFOoqOG4Egj3vw7C-18">
          <mxGeometry width="50" height="50" relative="1" as="geometry">
            <mxPoint x="460" y="240" as="sourcePoint" />
            <mxPoint x="653" y="192" as="targetPoint" />
          </mxGeometry>
        </mxCell>
        <mxCell id="EV2uNFOoqOG4Egj3vw7C-34" value="" style="group" vertex="1" connectable="0" parent="1">
          <mxGeometry x="652.5" y="410" width="330" height="190" as="geometry" />
        </mxCell>
        <mxCell id="EV2uNFOoqOG4Egj3vw7C-20" value="" style="group" vertex="1" connectable="0" parent="EV2uNFOoqOG4Egj3vw7C-34">
          <mxGeometry width="120" height="80" as="geometry" />
        </mxCell>
        <mxCell id="EV2uNFOoqOG4Egj3vw7C-18" value="" style="ellipse;whiteSpace=wrap;html=1;" vertex="1" parent="EV2uNFOoqOG4Egj3vw7C-20">
          <mxGeometry width="120" height="80" as="geometry" />
        </mxCell>
        <mxCell id="EV2uNFOoqOG4Egj3vw7C-19" value="Searches Property by Applying filters" style="text;html=1;align=center;verticalAlign=middle;whiteSpace=wrap;rounded=0;" vertex="1" parent="EV2uNFOoqOG4Egj3vw7C-20">
          <mxGeometry x="10" y="20" width="100" height="40" as="geometry" />
        </mxCell>
        <mxCell id="EV2uNFOoqOG4Egj3vw7C-22" value="" style="group" vertex="1" connectable="0" parent="EV2uNFOoqOG4Egj3vw7C-34">
          <mxGeometry x="210" width="120" height="80" as="geometry" />
        </mxCell>
        <mxCell id="EV2uNFOoqOG4Egj3vw7C-23" value="" style="ellipse;whiteSpace=wrap;html=1;" vertex="1" parent="EV2uNFOoqOG4Egj3vw7C-22">
          <mxGeometry width="120" height="80" as="geometry" />
        </mxCell>
        <mxCell id="EV2uNFOoqOG4Egj3vw7C-24" value="Smart Recommendation model" style="text;html=1;align=center;verticalAlign=middle;whiteSpace=wrap;rounded=0;" vertex="1" parent="EV2uNFOoqOG4Egj3vw7C-22">
          <mxGeometry x="10" y="20" width="100" height="40" as="geometry" />
        </mxCell>
        <mxCell id="EV2uNFOoqOG4Egj3vw7C-25" value="" style="group" vertex="1" connectable="0" parent="EV2uNFOoqOG4Egj3vw7C-34">
          <mxGeometry x="200" y="110" width="120" height="80" as="geometry" />
        </mxCell>
        <mxCell id="EV2uNFOoqOG4Egj3vw7C-26" value="" style="ellipse;whiteSpace=wrap;html=1;" vertex="1" parent="EV2uNFOoqOG4Egj3vw7C-25">
          <mxGeometry width="120" height="80" as="geometry" />
        </mxCell>
        <mxCell id="EV2uNFOoqOG4Egj3vw7C-27" value="ML Model for Keyword extraction" style="text;html=1;align=center;verticalAlign=middle;whiteSpace=wrap;rounded=0;" vertex="1" parent="EV2uNFOoqOG4Egj3vw7C-25">
          <mxGeometry x="10" y="20" width="100" height="40" as="geometry" />
        </mxCell>
        <mxCell id="EV2uNFOoqOG4Egj3vw7C-28" value="" style="endArrow=classic;html=1;rounded=0;exitX=0;exitY=0.5;exitDx=0;exitDy=0;dashed=1;" edge="1" parent="EV2uNFOoqOG4Egj3vw7C-34" source="EV2uNFOoqOG4Egj3vw7C-23">
          <mxGeometry relative="1" as="geometry">
            <mxPoint x="30" y="150" as="sourcePoint" />
            <mxPoint x="120" y="40" as="targetPoint" />
          </mxGeometry>
        </mxCell>
        <mxCell id="EV2uNFOoqOG4Egj3vw7C-29" value="Label" style="edgeLabel;resizable=0;html=1;;align=center;verticalAlign=middle;" connectable="0" vertex="1" parent="EV2uNFOoqOG4Egj3vw7C-28">
          <mxGeometry relative="1" as="geometry" />
        </mxCell>
        <mxCell id="EV2uNFOoqOG4Egj3vw7C-32" value="&amp;lt;&amp;lt;inlcude&amp;gt;&amp;gt;" style="edgeLabel;html=1;align=center;verticalAlign=middle;resizable=0;points=[];" vertex="1" connectable="0" parent="EV2uNFOoqOG4Egj3vw7C-28">
          <mxGeometry x="0.0136" y="1" relative="1" as="geometry">
            <mxPoint x="6" y="-1" as="offset" />
          </mxGeometry>
        </mxCell>
        <mxCell id="EV2uNFOoqOG4Egj3vw7C-30" value="" style="endArrow=classic;html=1;rounded=0;exitX=0;exitY=0.5;exitDx=0;exitDy=0;entryX=1;entryY=1;entryDx=0;entryDy=0;dashed=1;" edge="1" parent="EV2uNFOoqOG4Egj3vw7C-34" source="EV2uNFOoqOG4Egj3vw7C-26" target="EV2uNFOoqOG4Egj3vw7C-18">
          <mxGeometry relative="1" as="geometry">
            <mxPoint x="220" y="50" as="sourcePoint" />
            <mxPoint x="120" y="50" as="targetPoint" />
          </mxGeometry>
        </mxCell>
        <mxCell id="EV2uNFOoqOG4Egj3vw7C-31" value="&amp;lt;&amp;lt;include&amp;gt;&amp;gt;" style="edgeLabel;resizable=0;html=1;;align=center;verticalAlign=middle;" connectable="0" vertex="1" parent="EV2uNFOoqOG4Egj3vw7C-30">
          <mxGeometry relative="1" as="geometry" />
        </mxCell>
        <mxCell id="EV2uNFOoqOG4Egj3vw7C-36" value="" style="group" vertex="1" connectable="0" parent="1">
          <mxGeometry x="642.5" y="270" width="360" height="80" as="geometry" />
        </mxCell>
        <mxCell id="EV2uNFOoqOG4Egj3vw7C-7" value="" style="ellipse;whiteSpace=wrap;html=1;" vertex="1" parent="EV2uNFOoqOG4Egj3vw7C-36">
          <mxGeometry width="120" height="80" as="geometry" />
        </mxCell>
        <mxCell id="EV2uNFOoqOG4Egj3vw7C-10" value="Registers to our platform" style="text;html=1;align=center;verticalAlign=middle;whiteSpace=wrap;rounded=0;" vertex="1" parent="EV2uNFOoqOG4Egj3vw7C-36">
          <mxGeometry x="20" y="20" width="80" height="40" as="geometry" />
        </mxCell>
        <mxCell id="EV2uNFOoqOG4Egj3vw7C-13" value="" style="group" vertex="1" connectable="0" parent="EV2uNFOoqOG4Egj3vw7C-36">
          <mxGeometry x="240" width="120" height="80" as="geometry" />
        </mxCell>
        <mxCell id="EV2uNFOoqOG4Egj3vw7C-11" value="" style="ellipse;whiteSpace=wrap;html=1;" vertex="1" parent="EV2uNFOoqOG4Egj3vw7C-13">
          <mxGeometry width="120" height="80" as="geometry" />
        </mxCell>
        <mxCell id="EV2uNFOoqOG4Egj3vw7C-12" value="Buys the subscription" style="text;html=1;align=center;verticalAlign=middle;whiteSpace=wrap;rounded=0;" vertex="1" parent="EV2uNFOoqOG4Egj3vw7C-13">
          <mxGeometry x="20" y="20" width="80" height="40" as="geometry" />
        </mxCell>
        <mxCell id="EV2uNFOoqOG4Egj3vw7C-15" value="" style="endArrow=classic;html=1;rounded=0;exitX=1;exitY=0.5;exitDx=0;exitDy=0;entryX=0;entryY=0.5;entryDx=0;entryDy=0;dashed=1;" edge="1" parent="EV2uNFOoqOG4Egj3vw7C-36" source="EV2uNFOoqOG4Egj3vw7C-7" target="EV2uNFOoqOG4Egj3vw7C-11">
          <mxGeometry relative="1" as="geometry">
            <mxPoint x="160" y="90" as="sourcePoint" />
            <mxPoint x="260" y="90" as="targetPoint" />
          </mxGeometry>
        </mxCell>
        <mxCell id="EV2uNFOoqOG4Egj3vw7C-16" value="Label" style="edgeLabel;resizable=0;html=1;;align=center;verticalAlign=middle;" connectable="0" vertex="1" parent="EV2uNFOoqOG4Egj3vw7C-15">
          <mxGeometry relative="1" as="geometry" />
        </mxCell>
        <mxCell id="EV2uNFOoqOG4Egj3vw7C-17" value="&amp;lt;&amp;lt;extends&amp;gt;&amp;gt;" style="edgeLabel;html=1;align=center;verticalAlign=middle;resizable=0;points=[];" vertex="1" connectable="0" parent="EV2uNFOoqOG4Egj3vw7C-15">
          <mxGeometry x="-0.0135" y="6" relative="1" as="geometry">
            <mxPoint x="1" y="6" as="offset" />
          </mxGeometry>
        </mxCell>
        <mxCell id="EV2uNFOoqOG4Egj3vw7C-37" value="" style="ellipse;whiteSpace=wrap;html=1;" vertex="1" parent="1">
          <mxGeometry x="812.5" y="170" width="120" height="80" as="geometry" />
        </mxCell>
        <mxCell id="EV2uNFOoqOG4Egj3vw7C-38" value="Email Verification Model" style="text;html=1;align=center;verticalAlign=middle;whiteSpace=wrap;rounded=0;" vertex="1" parent="1">
          <mxGeometry x="832.5" y="190" width="80" height="40" as="geometry" />
        </mxCell>
        <mxCell id="EV2uNFOoqOG4Egj3vw7C-39" value="" style="endArrow=classic;html=1;rounded=0;exitX=0;exitY=0.5;exitDx=0;exitDy=0;entryX=1;entryY=0;entryDx=0;entryDy=0;dashed=1;" edge="1" parent="1" source="EV2uNFOoqOG4Egj3vw7C-37" target="EV2uNFOoqOG4Egj3vw7C-7">
          <mxGeometry relative="1" as="geometry">
            <mxPoint x="862.5" y="570" as="sourcePoint" />
            <mxPoint x="765.5" y="488" as="targetPoint" />
          </mxGeometry>
        </mxCell>
        <mxCell id="EV2uNFOoqOG4Egj3vw7C-40" value="&amp;lt;&amp;lt;include&amp;gt;&amp;gt;" style="edgeLabel;resizable=0;html=1;;align=center;verticalAlign=middle;" connectable="0" vertex="1" parent="EV2uNFOoqOG4Egj3vw7C-39">
          <mxGeometry relative="1" as="geometry" />
        </mxCell>
        <mxCell id="EV2uNFOoqOG4Egj3vw7C-41" value="PG Owner" style="shape=umlActor;verticalLabelPosition=bottom;verticalAlign=top;html=1;outlineConnect=0;" vertex="1" parent="1">
          <mxGeometry x="410" y="810" width="30" height="60" as="geometry" />
        </mxCell>
        <mxCell id="EV2uNFOoqOG4Egj3vw7C-47" value="" style="ellipse;whiteSpace=wrap;html=1;" vertex="1" parent="1">
          <mxGeometry x="652.5" y="680" width="120" height="80" as="geometry" />
        </mxCell>
        <mxCell id="EV2uNFOoqOG4Egj3vw7C-48" value="Requests for property listing" style="text;html=1;align=center;verticalAlign=middle;whiteSpace=wrap;rounded=0;" vertex="1" parent="1">
          <mxGeometry x="672.5" y="705" width="80" height="30" as="geometry" />
        </mxCell>
        <mxCell id="EV2uNFOoqOG4Egj3vw7C-49" value="" style="ellipse;whiteSpace=wrap;html=1;" vertex="1" parent="1">
          <mxGeometry x="857.5" y="680" width="120" height="80" as="geometry" />
        </mxCell>
        <mxCell id="EV2uNFOoqOG4Egj3vw7C-50" value="" style="endArrow=classic;html=1;rounded=0;exitX=1;exitY=0.5;exitDx=0;exitDy=0;dashed=1;entryX=0;entryY=0.5;entryDx=0;entryDy=0;" edge="1" parent="1" target="EV2uNFOoqOG4Egj3vw7C-49">
          <mxGeometry relative="1" as="geometry">
            <mxPoint x="772.5" y="720" as="sourcePoint" />
            <mxPoint x="852.5" y="720" as="targetPoint" />
          </mxGeometry>
        </mxCell>
        <mxCell id="EV2uNFOoqOG4Egj3vw7C-51" value="Label" style="edgeLabel;resizable=0;html=1;;align=center;verticalAlign=middle;" connectable="0" vertex="1" parent="EV2uNFOoqOG4Egj3vw7C-50">
          <mxGeometry relative="1" as="geometry" />
        </mxCell>
        <mxCell id="EV2uNFOoqOG4Egj3vw7C-52" value="&amp;lt;&amp;lt;extends&amp;gt;&amp;gt;" style="edgeLabel;html=1;align=center;verticalAlign=middle;resizable=0;points=[];" vertex="1" connectable="0" parent="EV2uNFOoqOG4Egj3vw7C-50">
          <mxGeometry x="-0.0135" y="6" relative="1" as="geometry">
            <mxPoint x="-2" y="6" as="offset" />
          </mxGeometry>
        </mxCell>
        <mxCell id="EV2uNFOoqOG4Egj3vw7C-53" value="Government document verification" style="text;html=1;align=center;verticalAlign=middle;whiteSpace=wrap;rounded=0;" vertex="1" parent="1">
          <mxGeometry x="877.5" y="705" width="80" height="30" as="geometry" />
        </mxCell>
        <mxCell id="EV2uNFOoqOG4Egj3vw7C-54" value="" style="endArrow=none;html=1;rounded=0;entryX=0;entryY=0.5;entryDx=0;entryDy=0;" edge="1" parent="1" target="EV2uNFOoqOG4Egj3vw7C-47">
          <mxGeometry width="50" height="50" relative="1" as="geometry">
            <mxPoint x="450" y="820" as="sourcePoint" />
            <mxPoint x="500" y="780" as="targetPoint" />
          </mxGeometry>
        </mxCell>
        <mxCell id="EV2uNFOoqOG4Egj3vw7C-55" value="" style="ellipse;whiteSpace=wrap;html=1;" vertex="1" parent="1">
          <mxGeometry x="652.5" y="840" width="120" height="80" as="geometry" />
        </mxCell>
        <mxCell id="EV2uNFOoqOG4Egj3vw7C-57" value="Video and Image upload" style="text;html=1;align=center;verticalAlign=middle;whiteSpace=wrap;rounded=0;" vertex="1" parent="1">
          <mxGeometry x="682.5" y="865" width="60" height="30" as="geometry" />
        </mxCell>
        <mxCell id="EV2uNFOoqOG4Egj3vw7C-58" value="" style="endArrow=none;html=1;rounded=0;entryX=0;entryY=0.5;entryDx=0;entryDy=0;" edge="1" parent="1" target="EV2uNFOoqOG4Egj3vw7C-55">
          <mxGeometry width="50" height="50" relative="1" as="geometry">
            <mxPoint x="450" y="830" as="sourcePoint" />
            <mxPoint x="650" y="680" as="targetPoint" />
          </mxGeometry>
        </mxCell>
        <mxCell id="EV2uNFOoqOG4Egj3vw7C-59" value="Admin" style="shape=umlActor;verticalLabelPosition=bottom;verticalAlign=top;html=1;outlineConnect=0;" vertex="1" parent="1">
          <mxGeometry x="1370" y="530" width="30" height="60" as="geometry" />
        </mxCell>
        <mxCell id="EV2uNFOoqOG4Egj3vw7C-62" value="" style="group" vertex="1" connectable="0" parent="1">
          <mxGeometry x="1047.5" y="830" width="120" height="80" as="geometry" />
        </mxCell>
        <mxCell id="EV2uNFOoqOG4Egj3vw7C-60" value="" style="ellipse;whiteSpace=wrap;html=1;" vertex="1" parent="EV2uNFOoqOG4Egj3vw7C-62">
          <mxGeometry width="120" height="80" as="geometry" />
        </mxCell>
        <mxCell id="EV2uNFOoqOG4Egj3vw7C-61" value="Manually verifies property docuements" style="text;html=1;align=center;verticalAlign=middle;whiteSpace=wrap;rounded=0;" vertex="1" parent="EV2uNFOoqOG4Egj3vw7C-62">
          <mxGeometry x="20" y="25" width="80" height="30" as="geometry" />
        </mxCell>
        <mxCell id="EV2uNFOoqOG4Egj3vw7C-63" value="" style="ellipse;whiteSpace=wrap;html=1;" vertex="1" parent="1">
          <mxGeometry x="1042.5" y="680" width="120" height="80" as="geometry" />
        </mxCell>
        <mxCell id="EV2uNFOoqOG4Egj3vw7C-64" value="monitors tenant and owner activity" style="text;html=1;align=center;verticalAlign=middle;whiteSpace=wrap;rounded=0;" vertex="1" parent="1">
          <mxGeometry x="1062.5" y="705" width="80" height="30" as="geometry" />
        </mxCell>
        <mxCell id="EV2uNFOoqOG4Egj3vw7C-65" value="" style="ellipse;whiteSpace=wrap;html=1;" vertex="1" parent="1">
          <mxGeometry x="1042.5" y="520" width="120" height="90" as="geometry" />
        </mxCell>
        <mxCell id="EV2uNFOoqOG4Egj3vw7C-66" value="resolves disputes between tenants and property owners" style="text;html=1;align=center;verticalAlign=middle;whiteSpace=wrap;rounded=0;" vertex="1" parent="1">
          <mxGeometry x="1052.5" y="560" width="100" height="30" as="geometry" />
        </mxCell>
        <mxCell id="EV2uNFOoqOG4Egj3vw7C-67" value="" style="ellipse;whiteSpace=wrap;html=1;" vertex="1" parent="1">
          <mxGeometry x="1042.5" y="320" width="120" height="80" as="geometry" />
        </mxCell>
        <mxCell id="EV2uNFOoqOG4Egj3vw7C-68" value="removes or edits content violating platform policies" style="text;html=1;align=center;verticalAlign=middle;whiteSpace=wrap;rounded=0;" vertex="1" parent="1">
          <mxGeometry x="1057.5" y="345" width="90" height="30" as="geometry" />
        </mxCell>
        <mxCell id="EV2uNFOoqOG4Egj3vw7C-69" value="" style="endArrow=none;html=1;rounded=0;exitX=1;exitY=0.5;exitDx=0;exitDy=0;" edge="1" parent="1" source="EV2uNFOoqOG4Egj3vw7C-67">
          <mxGeometry width="50" height="50" relative="1" as="geometry">
            <mxPoint x="1260" y="450" as="sourcePoint" />
            <mxPoint x="1360" y="520" as="targetPoint" />
          </mxGeometry>
        </mxCell>
        <mxCell id="EV2uNFOoqOG4Egj3vw7C-70" value="" style="endArrow=none;html=1;rounded=0;exitX=1;exitY=0.5;exitDx=0;exitDy=0;" edge="1" parent="1" source="EV2uNFOoqOG4Egj3vw7C-65">
          <mxGeometry width="50" height="50" relative="1" as="geometry">
            <mxPoint x="1150" y="518" as="sourcePoint" />
            <mxPoint x="1360" y="530" as="targetPoint" />
          </mxGeometry>
        </mxCell>
        <mxCell id="EV2uNFOoqOG4Egj3vw7C-71" value="" style="endArrow=none;html=1;rounded=0;exitX=1;exitY=0.5;exitDx=0;exitDy=0;" edge="1" parent="1" source="EV2uNFOoqOG4Egj3vw7C-63">
          <mxGeometry width="50" height="50" relative="1" as="geometry">
            <mxPoint x="1160" y="528" as="sourcePoint" />
            <mxPoint x="1360" y="550" as="targetPoint" />
          </mxGeometry>
        </mxCell>
        <mxCell id="EV2uNFOoqOG4Egj3vw7C-72" value="" style="endArrow=none;html=1;rounded=0;exitX=1;exitY=0;exitDx=0;exitDy=0;" edge="1" parent="1" source="EV2uNFOoqOG4Egj3vw7C-60">
          <mxGeometry width="50" height="50" relative="1" as="geometry">
            <mxPoint x="1160" y="680" as="sourcePoint" />
            <mxPoint x="1360" y="570" as="targetPoint" />
          </mxGeometry>
        </mxCell>
        <mxCell id="EV2uNFOoqOG4Egj3vw7C-73" value="TerraNest - Online PG Listing Platform" style="text;html=1;align=center;verticalAlign=middle;whiteSpace=wrap;rounded=0;fontSize=21;" vertex="1" parent="1">
          <mxGeometry x="686" y="120" width="434" height="30" as="geometry" />
        </mxCell>
        <mxCell id="EV2uNFOoqOG4Egj3vw7C-74" value="" style="ellipse;whiteSpace=wrap;html=1;" vertex="1" parent="1">
          <mxGeometry x="858" y="840" width="120" height="80" as="geometry" />
        </mxCell>
        <mxCell id="EV2uNFOoqOG4Egj3vw7C-75" value="Subscribe to freemium model" style="text;html=1;align=center;verticalAlign=middle;whiteSpace=wrap;rounded=0;" vertex="1" parent="1">
          <mxGeometry x="878" y="865" width="80" height="30" as="geometry" />
        </mxCell>
        <mxCell id="EV2uNFOoqOG4Egj3vw7C-76" value="" style="endArrow=classic;html=1;rounded=0;exitX=0;exitY=0;exitDx=0;exitDy=0;entryX=1;entryY=1;entryDx=0;entryDy=0;dashed=1;" edge="1" parent="1" source="EV2uNFOoqOG4Egj3vw7C-74" target="EV2uNFOoqOG4Egj3vw7C-47">
          <mxGeometry relative="1" as="geometry">
            <mxPoint x="862.5" y="570" as="sourcePoint" />
            <mxPoint x="764.5" y="488" as="targetPoint" />
          </mxGeometry>
        </mxCell>
        <mxCell id="EV2uNFOoqOG4Egj3vw7C-77" value="&amp;lt;&amp;lt;include&amp;gt;&amp;gt;" style="edgeLabel;resizable=0;html=1;;align=center;verticalAlign=middle;" connectable="0" vertex="1" parent="EV2uNFOoqOG4Egj3vw7C-76">
          <mxGeometry relative="1" as="geometry" />
        </mxCell>
      </root>
    </mxGraphModel>
  </diagram>
</mxfile>
